<svg xmlns="http://www.w3.org/2000/svg" xmlns:xlink="http://www.w3.org/1999/xlink" version="1.1" x="0px" y="0px" viewBox="0 0 100 100" enable-background="new 0 0 100 100" xml:space="preserve"><g><circle cx="70.2" cy="48" r="3"/><circle cx="56" cy="48" r="3"/><circle cx="70.2" cy="33.8" r="3"/><path d="M75.6,22.9H53.8c-2.6-5.3-8-8.9-14.3-8.9c-8.7,0-15.9,7.1-15.9,15.8c0,5,2.3,9.4,5.9,12.3L19,75.1c0,0.1-0.1,0.3-0.1,0.5   C18.9,81.4,28,86,39.5,86c11.6,0,20.7-4.6,20.7-10.4c0-0.2,0-0.3-0.1-0.5l-5.2-16.2h20.7c3,0,5.5-2.5,5.5-5.5v-25   C81.1,25.4,78.6,22.9,75.6,22.9z M26.7,29.8c0-7,5.8-12.8,12.9-12.8s12.9,5.7,12.9,12.8c0,7-5.8,12.8-12.9,12.8   S26.7,36.8,26.7,29.8z M39.5,83c-10.2,0-17.4-3.8-17.6-7.2l10.3-32c2.2,1.1,4.7,1.8,7.3,1.8c2.6,0,5.1-0.7,7.3-1.8l10.3,32   C56.9,79.2,49.7,83,39.5,83z M78.1,53.4c0,1.4-1.1,2.5-2.5,2.5H53.9l-4.5-13.8c2-1.6,3.6-3.6,4.6-6c0.5,0.4,1.2,0.7,1.9,0.7   c1.7,0,3-1.3,3-3s-1.3-3-3-3c-0.2,0-0.4,0-0.6,0.1c0-0.4,0.1-0.7,0.1-1.1c0-1.3-0.2-2.6-0.5-3.9h20.7c1.4,0,2.5,1.1,2.5,2.5V53.4z"/><circle cx="63.1" cy="40.9" r="3"/></g></svg>